<mxfile host="Electron" modified="2024-09-15T18:03:26.581Z" agent="Mozilla/5.0 (Windows NT 10.0; Win64; x64) AppleWebKit/537.36 (KHTML, like Gecko) draw.io/21.6.8 Chrome/114.0.5735.289 Electron/25.5.0 Safari/537.36" etag="bC_7xwuJTy57zZ7oE4Cy" version="21.6.8" type="device">
  <diagram name="Страница — 1" id="Iy1tG4qxwTNKTH1CZwpv">
    <mxGraphModel dx="1199" dy="1235" grid="1" gridSize="10" guides="1" tooltips="1" connect="1" arrows="1" fold="1" page="1" pageScale="1" pageWidth="827" pageHeight="1169" math="0" shadow="0">
      <root>
        <mxCell id="0" />
        <mxCell id="1" parent="0" />
        <mxCell id="nVQOI7Ib9pp3wLk5Te-G-3" value="Контейнер с базой данных&lt;br&gt;PostgreSQL" style="verticalAlign=top;align=left;spacingTop=8;spacingLeft=2;spacingRight=12;shape=cube;size=10;direction=south;fontStyle=4;html=1;whiteSpace=wrap;" vertex="1" parent="1">
          <mxGeometry x="403" y="230" width="170" height="50" as="geometry" />
        </mxCell>
        <mxCell id="nVQOI7Ib9pp3wLk5Te-G-11" style="edgeStyle=orthogonalEdgeStyle;rounded=0;orthogonalLoop=1;jettySize=auto;html=1;exitX=0;exitY=0;exitDx=0;exitDy=75;exitPerimeter=0;entryX=0;entryY=0;entryDx=50;entryDy=90;entryPerimeter=0;" edge="1" parent="1" source="nVQOI7Ib9pp3wLk5Te-G-5" target="nVQOI7Ib9pp3wLk5Te-G-9">
          <mxGeometry relative="1" as="geometry" />
        </mxCell>
        <mxCell id="nVQOI7Ib9pp3wLk5Te-G-5" value="Компьютер менеджера" style="verticalAlign=top;align=left;spacingTop=8;spacingLeft=2;spacingRight=12;shape=cube;size=10;direction=south;fontStyle=4;html=1;whiteSpace=wrap;" vertex="1" parent="1">
          <mxGeometry x="403" y="560" width="160" height="90" as="geometry" />
        </mxCell>
        <mxCell id="nVQOI7Ib9pp3wLk5Te-G-10" style="edgeStyle=orthogonalEdgeStyle;rounded=0;orthogonalLoop=1;jettySize=auto;html=1;exitX=0;exitY=0;exitDx=0;exitDy=75;exitPerimeter=0;entryX=0;entryY=0;entryDx=50;entryDy=90;entryPerimeter=0;" edge="1" parent="1" source="nVQOI7Ib9pp3wLk5Te-G-7" target="nVQOI7Ib9pp3wLk5Te-G-9">
          <mxGeometry relative="1" as="geometry" />
        </mxCell>
        <mxCell id="nVQOI7Ib9pp3wLk5Te-G-7" value="Компьютер агронома" style="verticalAlign=top;align=left;spacingTop=8;spacingLeft=2;spacingRight=12;shape=cube;size=10;direction=south;fontStyle=4;html=1;whiteSpace=wrap;" vertex="1" parent="1">
          <mxGeometry x="220" y="560" width="160" height="90" as="geometry" />
        </mxCell>
        <mxCell id="nVQOI7Ib9pp3wLk5Te-G-8" value="Веб-интерфейс" style="shape=module;align=left;spacingLeft=20;align=center;verticalAlign=top;whiteSpace=wrap;html=1;" vertex="1" parent="1">
          <mxGeometry x="413" y="597.5" width="130" height="45" as="geometry" />
        </mxCell>
        <mxCell id="nVQOI7Ib9pp3wLk5Te-G-2" value="Веб-интерфейс" style="shape=module;align=left;spacingLeft=20;align=center;verticalAlign=top;whiteSpace=wrap;html=1;" vertex="1" parent="1">
          <mxGeometry x="230" y="597.5" width="130" height="45" as="geometry" />
        </mxCell>
        <mxCell id="nVQOI7Ib9pp3wLk5Te-G-9" value="Контейнер&amp;nbsp;с front-end" style="verticalAlign=top;align=left;spacingTop=8;spacingLeft=2;spacingRight=12;shape=cube;size=10;direction=south;fontStyle=4;html=1;whiteSpace=wrap;" vertex="1" parent="1">
          <mxGeometry x="310" y="470" width="170" height="50" as="geometry" />
        </mxCell>
        <mxCell id="nVQOI7Ib9pp3wLk5Te-G-12" value="Контейнер&amp;nbsp;с back-end" style="verticalAlign=top;align=left;spacingTop=8;spacingLeft=2;spacingRight=12;shape=cube;size=10;direction=south;fontStyle=4;html=1;whiteSpace=wrap;" vertex="1" parent="1">
          <mxGeometry x="310" y="310" width="170" height="50" as="geometry" />
        </mxCell>
        <mxCell id="nVQOI7Ib9pp3wLk5Te-G-13" value="" style="endArrow=classic;html=1;rounded=0;exitX=-0.012;exitY=0.251;exitDx=0;exitDy=0;exitPerimeter=0;entryX=0.995;entryY=0.251;entryDx=0;entryDy=0;entryPerimeter=0;" edge="1" parent="1" target="nVQOI7Ib9pp3wLk5Te-G-12">
          <mxGeometry width="50" height="50" relative="1" as="geometry">
            <mxPoint x="437.33000000000015" y="389.39999999999986" as="sourcePoint" />
            <mxPoint x="450" y="470" as="targetPoint" />
          </mxGeometry>
        </mxCell>
        <mxCell id="nVQOI7Ib9pp3wLk5Te-G-14" value="" style="endArrow=classic;html=1;rounded=0;exitX=1.009;exitY=0.772;exitDx=0;exitDy=0;exitPerimeter=0;entryX=0.002;entryY=0.772;entryDx=0;entryDy=0;entryPerimeter=0;" edge="1" parent="1" source="nVQOI7Ib9pp3wLk5Te-G-12">
          <mxGeometry width="50" height="50" relative="1" as="geometry">
            <mxPoint x="447" y="399" as="sourcePoint" />
            <mxPoint x="348.7600000000001" y="390.10000000000014" as="targetPoint" />
          </mxGeometry>
        </mxCell>
        <mxCell id="nVQOI7Ib9pp3wLk5Te-G-15" value="Контейнер с базой данных&lt;br&gt;Redis (LRU-кэш)" style="verticalAlign=top;align=left;spacingTop=8;spacingLeft=2;spacingRight=12;shape=cube;size=10;direction=south;fontStyle=4;html=1;whiteSpace=wrap;" vertex="1" parent="1">
          <mxGeometry x="220" y="230" width="170" height="50" as="geometry" />
        </mxCell>
        <mxCell id="nVQOI7Ib9pp3wLk5Te-G-16" value="Контейнер&amp;nbsp;с RabbitMQ" style="verticalAlign=top;align=left;spacingTop=8;spacingLeft=2;spacingRight=12;shape=cube;size=10;direction=south;fontStyle=4;html=1;whiteSpace=wrap;" vertex="1" parent="1">
          <mxGeometry x="310" y="390" width="170" height="50" as="geometry" />
        </mxCell>
        <mxCell id="nVQOI7Ib9pp3wLk5Te-G-17" value="" style="endArrow=classic;html=1;rounded=0;exitX=-0.012;exitY=0.251;exitDx=0;exitDy=0;exitPerimeter=0;entryX=0.995;entryY=0.251;entryDx=0;entryDy=0;entryPerimeter=0;" edge="1" parent="1">
          <mxGeometry width="50" height="50" relative="1" as="geometry">
            <mxPoint x="439.21000000000015" y="469.29999999999984" as="sourcePoint" />
            <mxPoint x="438.88" y="439.9" as="targetPoint" />
          </mxGeometry>
        </mxCell>
        <mxCell id="nVQOI7Ib9pp3wLk5Te-G-18" value="" style="endArrow=classic;html=1;rounded=0;exitX=1.009;exitY=0.772;exitDx=0;exitDy=0;exitPerimeter=0;entryX=0.002;entryY=0.772;entryDx=0;entryDy=0;entryPerimeter=0;" edge="1" parent="1">
          <mxGeometry width="50" height="50" relative="1" as="geometry">
            <mxPoint x="350.88" y="439.9" as="sourcePoint" />
            <mxPoint x="350.6400000000001" y="470.0000000000001" as="targetPoint" />
          </mxGeometry>
        </mxCell>
        <mxCell id="nVQOI7Ib9pp3wLk5Te-G-19" value="" style="endArrow=classic;html=1;rounded=0;entryX=0.002;entryY=0.772;entryDx=0;entryDy=0;entryPerimeter=0;" edge="1" parent="1">
          <mxGeometry width="50" height="50" relative="1" as="geometry">
            <mxPoint x="320" y="280" as="sourcePoint" />
            <mxPoint x="340.0000000000001" y="310.10000000000014" as="targetPoint" />
          </mxGeometry>
        </mxCell>
        <mxCell id="nVQOI7Ib9pp3wLk5Te-G-20" value="" style="endArrow=classic;html=1;rounded=0;exitX=0.994;exitY=0.784;exitDx=0;exitDy=0;exitPerimeter=0;entryX=0.008;entryY=0.351;entryDx=0;entryDy=0;entryPerimeter=0;" edge="1" parent="1" source="nVQOI7Ib9pp3wLk5Te-G-3" target="nVQOI7Ib9pp3wLk5Te-G-12">
          <mxGeometry width="50" height="50" relative="1" as="geometry">
            <mxPoint x="310" y="290" as="sourcePoint" />
            <mxPoint x="350.0000000000001" y="320.10000000000014" as="targetPoint" />
          </mxGeometry>
        </mxCell>
        <mxCell id="nVQOI7Ib9pp3wLk5Te-G-21" value="" style="endArrow=classic;html=1;rounded=0;exitX=0.005;exitY=0.722;exitDx=0;exitDy=0;exitPerimeter=0;entryX=1.005;entryY=0.307;entryDx=0;entryDy=0;entryPerimeter=0;" edge="1" parent="1" source="nVQOI7Ib9pp3wLk5Te-G-12" target="nVQOI7Ib9pp3wLk5Te-G-15">
          <mxGeometry width="50" height="50" relative="1" as="geometry">
            <mxPoint x="340" y="278.9" as="sourcePoint" />
            <mxPoint x="370" y="300" as="targetPoint" />
          </mxGeometry>
        </mxCell>
        <mxCell id="nVQOI7Ib9pp3wLk5Te-G-22" value="" style="endArrow=classic;html=1;rounded=0;exitX=0.005;exitY=0.722;exitDx=0;exitDy=0;exitPerimeter=0;entryX=0.998;entryY=0.67;entryDx=0;entryDy=0;entryPerimeter=0;" edge="1" parent="1" target="nVQOI7Ib9pp3wLk5Te-G-3">
          <mxGeometry width="50" height="50" relative="1" as="geometry">
            <mxPoint x="439" y="310" as="sourcePoint" />
            <mxPoint x="420" y="280" as="targetPoint" />
          </mxGeometry>
        </mxCell>
      </root>
    </mxGraphModel>
  </diagram>
</mxfile>
